<svg xmlns="http://www.w3.org/2000/svg" width="90" height="25" viewBox="0 0 90 25">
  <g fill="none">
    <path fill="#7B32E8" d="M11.4363819,18.0968468 L8.24747739,18.0968468 L8.24747739,6.80968468 L11.4363819,6.80968468 L11.4363819,0.00900900901 C5.00559259,0.599759661 0.0843737297,5.99594471 0.0843737297,12.4566441 C0.0843737297,18.9173436 5.00559259,24.3135286 11.4363819,24.9042793 L11.4363819,18.0968468 Z"/>
    <path fill="#1CB7ED" d="M13.7326633,0.00675675676 L13.7326633,6.88851351 C14.191825,6.95420726 14.6422328,7.07091939 15.0755377,7.23648649 C15.7808689,7.50266798 16.4268914,7.90522356 16.9767236,8.42117117 C17.5083064,8.92327246 17.9299296,9.53029509 18.2149146,10.2038288 C18.5082273,10.90552 18.6560454,11.6594959 18.649407,12.420045 L18.649407,12.4527027 C18.6555834,13.2161249 18.5078069,13.9729529 18.2149146,14.6779279 C17.9317363,15.3544244 17.5099326,15.9640085 16.9767236,16.4673423 C16.4261809,16.9845785 15.7805093,17.389975 15.0755377,17.661036 C14.6427385,17.8301206 14.1922712,17.9498702 13.7326633,18.018018 L13.7326633,24.9076577 C20.1714354,24.3258512 25.1032113,18.926175 25.1032113,12.4583333 C25.1032113,5.9904917 20.1714354,0.59081546 13.7326633,0.00900900901 L13.7326633,0.00675675676 Z"/>
    <path fill="#FFF" d="M37.8965226,14.8817568 C37.6078027,15.5729538 37.1780247,16.1962351 36.6346935,16.7117117 C36.071457,17.2407834 35.4108622,17.6553676 34.689608,17.9324324 C33.8994936,18.2353313 33.0593151,18.3862483 32.2132261,18.3772523 L27.7107136,18.3772523 L27.7107136,6.83333333 L32.2132261,6.83333333 C33.0585894,6.82455531 33.8982485,6.97270616 34.689608,7.27027027 C35.4115241,7.54236357 36.0725562,7.95454328 36.6346935,8.48310811 C37.1768506,8.99652346 37.6065313,9.61697934 37.8965226,10.3051802 C38.196671,11.0228834 38.3479383,11.7941129 38.3411457,12.5720721 L38.3411457,12.6058559 C38.3473209,13.3866736 38.1961013,14.1607244 37.8965226,14.8817568 Z M35.6824121,12.6058559 C35.6876311,12.1264673 35.6008915,11.6505266 35.4268945,11.2038288 C35.2675897,10.7916769 35.026775,10.4159318 34.7188744,10.0990991 C34.4076736,9.78580233 34.0341525,9.54140991 33.6225126,9.38175676 C33.1702619,9.20722321 32.6889207,9.12046702 32.2042211,9.12612613 L30.2478794,9.12612613 L30.2478794,16.0855856 L32.2087236,16.0855856 C32.6926851,16.0908609 33.1734758,16.0068761 33.6270151,15.8378378 C34.0392405,15.6830344 34.41321,15.4410374 34.7233769,15.1283784 C35.0285686,14.8158553 35.2691648,14.4461913 35.431397,14.0405405 C35.6058674,13.5941058 35.6911479,13.117778 35.6824121,12.6385135 L35.6824121,12.6058559 Z"/>
    <polygon fill="#FFF" points="39.215 18.377 39.215 6.833 41.754 6.833 41.754 18.377"/>
    <path fill="#FFF" d="M51.2160804,11.7308559 L53.6924623,11.7308559 L53.6924623,16.7443694 C53.0541809,17.2784312 52.340274,17.7148585 51.5740302,18.0394144 C50.6831473,18.4108431 49.7249411,18.5933663 48.7599598,18.5754505 C47.9170124,18.586262 47.0798121,18.4352623 46.2937085,18.1306306 C45.5788867,17.8510312 44.9279798,17.4296698 44.3801407,16.8918919 C43.8443415,16.3558271 43.4230787,15.7163738 43.1419497,15.0123874 C42.8378265,14.2578656 42.6848454,13.450916 42.6916985,12.6373874 L42.6916985,12.6047297 C42.669372,10.2038908 44.1035361,8.02898195 46.3184724,7.10472973 C47.0854143,6.78571328 47.9091582,6.62594891 48.7396985,6.63513514 C49.2117816,6.63318567 49.6831963,6.67085527 50.1489849,6.74774775 C50.5506161,6.81143693 50.9455116,6.91208937 51.3286432,7.04842342 C51.6854858,7.17745539 52.0280046,7.34312975 52.3507136,7.54279279 C52.6745653,7.74501777 52.9830732,7.97085515 53.2737286,8.21846847 L51.6742111,10.1486486 C51.4654881,9.96961867 51.2455424,9.80411624 51.0157186,9.65315315 C50.7985994,9.51254381 50.5695988,9.39121024 50.3313367,9.29054054 C50.0838997,9.19026899 49.8271226,9.11482385 49.5647839,9.06531532 C49.26581,9.00808295 48.9619147,8.98054676 48.6575276,8.98310811 C48.2100479,8.98016362 47.7677657,9.07913386 47.3641809,9.27252252 C46.9664815,9.46218021 46.6085314,9.72588864 46.3094673,10.0495495 C46.0026155,10.3811456 45.7619182,10.7683428 45.6003216,11.1903153 C45.4276418,11.6354249 45.3409362,12.1092682 45.344804,12.5867117 L45.344804,12.6126126 C45.3390827,13.1121833 45.4257104,13.6085087 45.6003216,14.0765766 C45.7622805,14.5093521 46.0087003,14.9055591 46.3252261,15.2421171 C46.6365883,15.5713809 47.0125043,15.8328367 47.4294673,16.0101351 C47.8755697,16.1967306 48.3552792,16.2894951 48.8387538,16.2826577 C49.7842814,16.2826577 50.5812261,16.0503003 51.2295879,15.5855856 L51.2160804,11.7308559 Z"/>
    <polygon fill="#FFF" points="54.943 18.377 54.943 6.833 57.481 6.833 57.481 18.377"/>
    <polygon fill="#FFF" points="64.602 9.176 64.602 18.377 62.064 18.377 62.064 9.176 58.553 9.176 58.553 6.833 68.113 6.833 68.113 9.176"/>
    <polygon fill="#FFF" points="69.133 18.377 69.133 6.833 77.82 6.833 77.82 9.093 71.638 9.093 71.638 11.435 77.079 11.435 77.079 13.694 71.638 13.694 71.638 16.118 77.902 16.118 77.902 18.377"/>
    <polygon fill="#FFF" points="86.763 18.377 84.174 14.42 81.57 18.377 78.687 18.377 82.709 12.507 78.851 6.833 81.819 6.833 84.242 10.577 86.681 6.833 89.566 6.833 85.709 12.474 89.731 18.377"/>
  </g>
</svg>
